HIERARCHY
ROOT Hips
{
	OFFSET 0.00000 0.00000 0.00000
	CHANNELS 6 Xposition Yposition Zposition Zrotation Yrotation Xrotation 
	JOINT LHipJoint
	{
		OFFSET 0 0 0
		CHANNELS 3 Zrotation Yrotation Xrotation
		JOINT LeftUpLeg
		{
			OFFSET 1.59801 -1.77853 0.57028
			CHANNELS 3 Zrotation Yrotation Xrotation
			JOINT LeftLeg
			{
				OFFSET 2.39439 -6.57854 0.00000
				CHANNELS 3 Zrotation Yrotation Xrotation
				JOINT LeftFoot
				{
					OFFSET 2.69334 -7.39989 0.00000
					CHANNELS 3 Zrotation Yrotation Xrotation
					JOINT LeftToeBase
					{
						OFFSET 0.09553 -0.26245 1.73747
						CHANNELS 3 Zrotation Yrotation Xrotation
						End Site
						{
							OFFSET 0.00000 -0.00000 0.89391
						}
					}
				}
			}
		}
	}
	JOINT RHipJoint
	{
		OFFSET 0 0 0
		CHANNELS 3 Zrotation Yrotation Xrotation
		JOINT RightUpLeg
		{
			OFFSET -1.54704 -1.77852 0.57028
			CHANNELS 3 Zrotation Yrotation Xrotation
			JOINT RightLeg
			{
				OFFSET -2.40286 -6.60180 0.00000
				CHANNELS 3 Zrotation Yrotation Xrotation
				JOINT RightFoot
				{
					OFFSET -2.63873 -7.24984 0.00000
					CHANNELS 3 Zrotation Yrotation Xrotation
					JOINT RightToeBase
					{
						OFFSET -0.15631 -0.42945 1.84436
						CHANNELS 3 Zrotation Yrotation Xrotation
						End Site
						{
							OFFSET -0.00000 -0.00000 0.95734
						}
					}
				}
			}
		}
	}
	JOINT LowerBack
	{
		OFFSET 0 0 0
		CHANNELS 3 Zrotation Yrotation Xrotation
		JOINT Spine
		{
			OFFSET -0.00436 1.89866 -0.04018
			CHANNELS 3 Zrotation Yrotation Xrotation
			JOINT Spine1
			{
				OFFSET 0.02031 1.88273 0.09634
				CHANNELS 3 Zrotation Yrotation Xrotation
				JOINT Neck
				{
					OFFSET 0 0 0
					CHANNELS 3 Zrotation Yrotation Xrotation
					JOINT Neck1
					{
						OFFSET -0.13105 1.89371 0.23083
						CHANNELS 3 Zrotation Yrotation Xrotation
						JOINT Head
						{
							OFFSET 0.17062 1.83990 -0.54062
							CHANNELS 3 Zrotation Yrotation Xrotation
							End Site
							{
								OFFSET 0.04576 1.94782 -0.21839
							}
						}
					}
				}
				JOINT LeftShoulder
				{
					OFFSET 0 0 0
					CHANNELS 3 Zrotation Yrotation Xrotation
					JOINT LeftArm
					{
						OFFSET 3.12424 1.09204 0.22226
						CHANNELS 3 Zrotation Yrotation Xrotation
						JOINT LeftForeArm
						{
							OFFSET 5.29277 -0.00000 0.00000
							CHANNELS 3 Zrotation Yrotation Xrotation
							JOINT LeftHand
							{
								OFFSET 2.85226 -0.00000 0.00000
								CHANNELS 3 Zrotation Yrotation Xrotation
								JOINT LeftFingerBase
								{
									OFFSET 0 0 0
									CHANNELS 3 Zrotation Yrotation Xrotation
									JOINT LeftHandIndex1
									{
										OFFSET 0.60210 -0.00000 0.00000
										CHANNELS 3 Zrotation Yrotation Xrotation
										End Site
										{
											OFFSET 0.48543 -0.00000 0.00000
										}
									}
								}
								JOINT LThumb
								{
									OFFSET 0 0 0
									CHANNELS 3 Zrotation Yrotation Xrotation
									End Site
									{
										OFFSET 0.49284 -0.00000 0.49284
									}
								}
							}
						}
					}
				}
				JOINT RightShoulder
				{
					OFFSET 0 0 0
					CHANNELS 3 Zrotation Yrotation Xrotation
					JOINT RightArm
					{
						OFFSET -2.91709 1.01504 0.30199
						CHANNELS 3 Zrotation Yrotation Xrotation
						JOINT RightForeArm
						{
							OFFSET -5.13304 -0.00000 0.00000
							CHANNELS 3 Zrotation Yrotation Xrotation
							JOINT RightHand
							{
								OFFSET -2.74305 -0.00000 0.00000
								CHANNELS 3 Zrotation Yrotation Xrotation
								JOINT RightFingerBase
								{
									OFFSET 0 0 0
									CHANNELS 3 Zrotation Yrotation Xrotation
									JOINT RightHandIndex1
									{
										OFFSET -0.76798 -0.00000 0.00000
										CHANNELS 3 Zrotation Yrotation Xrotation
										End Site
										{
											OFFSET -0.61916 -0.00000 0.00000
										}
									}
								}
								JOINT RThumb
								{
									OFFSET 0 0 0
									CHANNELS 3 Zrotation Yrotation Xrotation
									End Site
									{
										OFFSET -0.62862 -0.00000 0.62862
									}
								}
							}
						}
					}
				}
			}
		}
	}
}
MOTION
Frames: 12
Frame Time: .0083333
0.3485 17.4601 0.5969 -0.9646 0.7218 4.7970 0.0000 0.0000 0.0000 -18.8826 -20.3493 1.6817 0.6327 5.0893 14.1635 0.3694 9.1917 -18.2810 0.7796 -5.6373 -15.7355 0.0000 0.0000 0.0000 0.0000 0.0000 0.0000 0.0000 0.0000 0.0000 -0.0000 -0.0000 0.0000 -0.0000 -0.0000 0.0000 -1.5506 0.5226 -1.3727 1.1244 0.7192 -4.2352 2.0136 0.4331 -3.6212 -18.7288 -12.1586 -10.0385 19.1243 -18.0679 19.1472 7.3375 -8.1124 11.4734 0.0000 0.0000 0.0000 -92.6923 1.0598 16.0604 7.5891 -12.8846 -0.8582 -0.0000 -0.0000 29.4283 -4.5313 22.1264 -1.7098 -7.1250 0.0000 -0.0000 -32.2860 49.1592 -3.6598 0.0000 0.0000 0.0000 87.3846 -11.2347 24.5038 -13.7183 22.3306 -2.7202 0.0000 0.0000 13.2774 1.6797 12.1040 0.3523 7.1250 -0.0000 -0.0000 19.8680 -18.2256 13.4935
0.3493 17.4605 0.5948 -1.0013 0.6430 4.7857 0.0000 0.0000 0.0000 -18.8493 -20.3085 1.6632 0.6358 5.1016 14.1986 0.3694 9.2142 -18.3044 0.7852 -5.6568 -15.7918 0.0000 0.0000 0.0000 0.0000 0.0000 0.0000 0.0000 0.0000 0.0000 -0.0000 -0.0000 0.0000 -0.0000 -0.0000 0.0000 -1.5038 0.5373 -1.4008 1.1283 0.7395 -4.1900 1.9913 0.4407 -3.5586 -18.7091 -12.1517 -10.0809 19.1412 -18.0541 19.1232 7.3409 -8.1011 11.4697 0.0000 0.0000 0.0000 -92.6807 0.9628 16.5891 7.5766 -12.8643 -0.8554 -0.0000 -0.0000 29.2144 -4.6010 22.2939 -1.7487 -7.1250 0.0000 -0.0000 -32.4465 49.2915 -3.7970 0.0000 0.0000 0.0000 87.3619 -11.2060 24.9751 -13.8061 22.4568 -2.7536 0.0000 0.0000 12.9459 1.6616 12.1865 0.3508 7.1250 -0.0000 -0.0000 19.8466 -18.1477 13.5137
0.3493 17.4600 0.5934 -1.0667 0.5646 4.7679 0.0000 0.0000 0.0000 -18.7762 -20.2108 1.6306 0.6396 5.1165 14.2411 0.3685 9.2199 -18.2996 0.7856 -5.6582 -15.7959 0.0000 0.0000 0.0000 0.0000 0.0000 0.0000 0.0000 0.0000 0.0000 -0.0000 -0.0000 0.0000 -0.0000 -0.0000 0.0000 -1.4259 0.5491 -1.4131 1.1377 0.7561 -4.1495 1.9573 0.4458 -3.5092 -18.6564 -12.1549 -10.1557 19.0961 -18.0474 19.1431 7.3129 -8.0929 11.4791 -0.0000 0.0000 0.0000 -92.6626 0.9036 17.1058 7.6072 -12.9141 -0.8622 -0.0000 -0.0000 28.8642 -4.7036 22.4931 -1.8029 -7.1250 0.0000 -0.0000 -32.6557 49.4455 -3.9617 -0.0000 0.0000 0.0000 87.3524 -11.1455 25.4863 -13.8687 22.5468 -2.7776 0.0000 0.0000 12.5955 1.5216 12.1649 0.3207 7.1250 -0.0000 -0.0000 19.7566 -18.1664 13.4354
0.3494 17.4595 0.5908 -1.0644 0.4961 4.7607 0.0000 0.0000 0.0000 -18.7776 -20.1550 1.5984 0.6431 5.1304 14.2810 0.3739 9.1948 -18.3358 0.7654 -5.5869 -15.5904 0.0000 0.0000 0.0000 0.0000 0.0000 0.0000 0.0000 0.0000 0.0000 -0.0000 -0.0000 0.0000 -0.0000 -0.0000 0.0000 -1.4507 0.5487 -1.4163 1.1642 0.7559 -4.1156 1.9987 0.4464 -3.4730 -18.6861 -12.1618 -10.2341 19.0687 -18.0324 19.1526 7.3065 -8.0853 11.4946 0.0000 -0.0000 0.0000 -92.7073 0.8660 17.6023 7.6563 -12.9942 -0.8732 -0.0000 -0.0000 28.4858 -4.8181 22.5374 -1.8504 -7.1250 0.0000 -0.0000 -32.7826 49.4659 -3.9983 0.0000 -0.0000 0.0000 87.2844 -11.0744 26.0566 -13.9037 22.5969 -2.7910 0.0000 0.0000 12.3811 1.3424 12.1019 0.2815 7.1250 -0.0000 -0.0000 19.6455 -18.2236 13.3231
0.3501 17.4601 0.5881 -1.1035 0.4155 4.7408 0.0000 0.0000 0.0000 -18.7432 -20.1015 1.5856 0.6463 5.1429 14.3165 0.3858 9.1468 -18.4229 0.7419 -5.5022 -15.3467 0.0000 0.0000 0.0000 0.0000 0.0000 0.0000 0.0000 0.0000 0.0000 -0.0000 -0.0000 0.0000 -0.0000 -0.0000 0.0000 -1.4215 0.5535 -1.3940 1.1993 0.7633 -4.0946 2.0182 0.4495 -3.4642 -18.7440 -12.1451 -10.2275 19.1119 -18.0014 19.1110 7.3383 -8.0731 11.4824 -0.0000 -0.0000 0.0000 -92.7523 0.8341 17.7497 7.6737 -13.0226 -0.8771 -0.0000 -0.0000 28.4877 -4.8878 22.5870 -1.8812 -7.1250 0.0000 -0.0000 -32.8737 49.4974 -4.0397 -0.0000 -0.0000 0.0000 87.2399 -11.0497 26.4810 -13.9473 22.6593 -2.8078 0.0000 0.0000 12.3603 1.3964 12.0297 0.2911 7.1250 -0.0000 -0.0000 19.6894 -18.2923 13.3248
0.3513 17.4601 0.5861 -1.1115 0.3534 4.7314 0.0000 0.0000 0.0000 -18.7377 -20.0331 1.5662 0.6471 5.1459 14.3252 0.3819 9.1472 -18.3793 0.7536 -5.5445 -15.4684 0.0000 0.0000 0.0000 0.0000 0.0000 0.0000 0.0000 0.0000 0.0000 -0.0000 -0.0000 0.0000 -0.0000 -0.0000 0.0000 -1.4114 0.5574 -1.3690 1.2073 0.7686 -4.0997 2.0205 0.4521 -3.4839 -18.7391 -12.1147 -10.1917 19.1146 -17.9592 19.0842 7.3482 -8.0563 11.4554 0.0000 0.0000 0.0000 -92.7842 0.8393 17.7361 7.6991 -13.0639 -0.8829 -0.0000 -0.0000 28.6666 -5.1244 22.7692 -1.9877 -7.1250 0.0000 -0.0000 -33.1918 49.6158 -4.1930 0.0000 0.0000 0.0000 87.2568 -11.0623 26.8483 -13.9747 22.6985 -2.8183 0.0000 0.0000 12.4752 1.5438 12.1958 0.3262 7.1250 -0.0000 -0.0000 19.7677 -18.1375 13.4575
0.3519 17.4604 0.5843 -1.1221 0.3079 4.7121 0.0000 0.0000 0.0000 -18.7380 -19.9974 1.5577 0.6491 5.1536 14.3472 0.3731 9.1878 -18.3193 0.7529 -5.5420 -15.4613 0.0000 0.0000 0.0000 0.0000 0.0000 0.0000 0.0000 0.0000 0.0000 -0.0000 -0.0000 0.0000 -0.0000 -0.0000 0.0000 -1.3834 0.5514 -1.3177 1.1973 0.7601 -4.1329 1.9940 0.4476 -3.5463 -18.6922 -12.0739 -10.1300 19.0606 -17.9093 19.1130 7.3341 -8.0385 11.4306 -0.0000 0.0000 0.0000 -92.7776 0.8953 17.7021 7.7062 -13.0755 -0.8845 -0.0000 -0.0000 28.6878 -5.2674 22.8804 -2.0529 -7.1250 0.0000 -0.0000 -33.3853 49.6880 -4.2876 -0.0000 0.0000 0.0000 87.2624 -11.1759 27.4589 -14.0501 22.8063 -2.8475 0.0000 0.0000 12.4217 1.5635 12.1312 0.3286 7.1250 -0.0000 -0.0000 19.7882 -18.1987 13.4446
0.3525 17.4607 0.5822 -1.1281 0.2762 4.6831 0.0000 0.0000 0.0000 -18.7496 -20.0182 1.5963 0.6498 5.1564 14.3553 0.3911 9.1532 -18.4899 0.6891 -5.3071 -14.7865 0.0000 0.0000 0.0000 0.0000 0.0000 0.0000 0.0000 0.0000 0.0000 -0.0000 -0.0000 0.0000 -0.0000 -0.0000 0.0000 -1.3711 0.5477 -1.2799 1.2014 0.7550 -4.1387 1.9911 0.4450 -3.5733 -18.6707 -12.0620 -10.0838 18.9989 -17.8835 19.0964 7.3130 -8.0335 11.3993 -0.0000 -0.0000 0.0000 -92.7668 0.9639 18.2053 7.7516 -13.1493 -0.8948 -0.0000 -0.0000 28.0711 -5.1143 22.9741 -2.0007 -7.1250 0.0000 -0.0000 -33.3091 49.7905 -4.3673 -0.0000 -0.0000 0.0000 87.1633 -11.2422 28.3990 -14.1311 22.9218 -2.8790 0.0000 0.0000 12.0927 1.6985 11.8732 0.3496 7.1250 -0.0000 -0.0000 19.9074 -18.4429 13.4210
0.3526 17.4602 0.5799 -1.1669 0.2458 4.6832 0.0000 0.0000 0.0000 -18.7055 -19.9957 1.5853 0.6501 5.1576 14.3585 0.3994 9.1358 -18.5675 0.6895 -5.3085 -14.7904 0.0000 0.0000 0.0000 0.0000 0.0000 0.0000 0.0000 0.0000 0.0000 -0.0000 -0.0000 0.0000 -0.0000 -0.0000 0.0000 -1.3416 0.5451 -1.2943 1.2166 0.7523 -4.1240 1.9904 0.4427 -3.5496 -18.6648 -12.0560 -10.0813 18.9870 -17.8711 19.0880 7.3097 -8.0288 11.3907 -0.0000 0.0000 0.0000 -92.7283 1.0571 18.9691 7.8665 -13.3362 -0.9211 -0.0000 -0.0000 27.3361 -5.0331 23.1469 -1.9828 -7.1250 0.0000 -0.0000 -33.3454 49.9490 -4.5148 -0.0000 0.0000 0.0000 87.1019 -11.2564 29.1411 -14.2127 23.0380 -2.9108 0.0000 0.0000 12.1010 1.9805 11.5964 0.3983 7.1250 -0.0000 -0.0000 20.1271 -18.7059 13.4632
0.3528 17.4607 0.5776 -1.1297 0.2174 4.7061 0.0000 0.0000 0.0000 -18.7307 -19.9558 1.5272 0.6505 5.1594 14.3637 0.3918 9.1326 -18.4772 0.7101 -5.3856 -15.0117 0.0000 0.0000 0.0000 0.0000 0.0000 0.0000 0.0000 0.0000 0.0000 -0.0000 -0.0000 0.0000 -0.0000 -0.0000 0.0000 -1.3888 0.5377 -1.3533 1.2203 0.7425 -4.0970 2.0216 0.4386 -3.4886 -18.6727 -12.0391 -10.0765 18.9919 -17.8356 19.0307 7.3182 -8.0140 11.3619 -0.0000 -0.0000 0.0000 -92.7248 1.1009 19.3921 7.9560 -13.4816 -0.9419 -0.0000 -0.0000 26.9749 -5.0448 23.1269 -1.9858 -7.1250 0.0000 -0.0000 -33.3431 49.9303 -4.4977 -0.0000 -0.0000 0.0000 87.0549 -11.2238 29.6810 -14.2561 23.0997 -2.9278 0.0000 0.0000 12.3958 2.2426 11.5993 0.4511 7.1250 -0.0000 -0.0000 20.3001 -18.7052 13.5957
0.3531 17.4600 0.5764 -1.0973 0.2362 4.6779 0.0000 0.0000 0.0000 -18.7776 -19.9571 1.5581 0.6504 5.1588 14.3620 0.3833 9.1675 -18.4155 0.7436 -5.5086 -15.3651 0.0000 0.0000 0.0000 0.0000 0.0000 0.0000 0.0000 0.0000 0.0000 -0.0000 -0.0000 0.0000 -0.0000 -0.0000 0.0000 -1.3990 0.5414 -1.3469 1.2027 0.7468 -4.0626 2.0091 0.4401 -3.4565 -18.6847 -12.0549 -10.1090 18.9971 -17.8483 19.0095 7.3170 -8.0184 11.3653 0.0000 0.0000 0.0000 -92.7259 1.0645 19.5421 7.9721 -13.5076 -0.9456 -0.0000 -0.0000 26.9697 -5.0454 23.0852 -1.9826 -7.1250 0.0000 -0.0000 -33.3177 49.8950 -4.4620 0.0000 0.0000 0.0000 87.1020 -11.1910 29.9321 -14.2554 23.0987 -2.9276 0.0000 0.0000 12.8939 2.4042 11.7243 0.4888 7.1250 -0.0000 -0.0000 20.3915 -18.5891 13.7224
0.3535 17.4604 0.5745 -1.0957 0.2358 4.6471 0.0000 0.0000 0.0000 -18.7976 -19.9661 1.6100 0.6474 5.1471 14.3286 0.3866 9.1616 -18.4475 0.6927 -5.3207 -14.8256 0.0000 0.0000 0.0000 0.0000 0.0000 0.0000 0.0000 0.0000 0.0000 -0.0000 -0.0000 0.0000 -0.0000 -0.0000 0.0000 -1.4022 0.5356 -1.3237 1.2052 0.7387 -4.0334 2.0135 0.4358 -3.4389 -18.6743 -12.0541 -10.1268 18.9967 -17.8405 18.9814 7.3147 -8.0134 11.3555 -0.0000 -0.0000 0.0000 -92.7272 1.0230 19.7181 7.9825 -13.5245 -0.9480 -0.0000 -0.0000 26.8527 -5.1153 23.2058 -2.0201 -7.1250 0.0000 -0.0000 -33.4543 49.9860 -4.5660 -0.0000 -0.0000 0.0000 87.1665 -11.1596 30.0517 -14.2208 23.0495 -2.9140 0.0000 0.0000 13.5043 2.4388 12.0087 0.5077 7.1250 -0.0000 -0.0000 20.3796 -18.3224 13.8432
